<svg width="323" height="99" viewBox="0 0 323 99" fill="none" xmlns="http://www.w3.org/2000/svg">
<g clip-path="url(#clip0_709_2160)">
<path d="M60.8791 58.2914H0V1.1466H19.2865V13.4738H41.5926V1.1466H60.8791V20.0674H74.4186V-0.00012207H94.1921V72.4343H74.4186V38.3194H60.8791V58.2914ZM95.5558 80.4613V97.8532H4.87033V64.025H24.9361V80.3657H95.5558V80.4613ZM41.5926 42.1418V29.3368H19.2865V42.1418H41.5926Z" fill="#3D51FF"/>
<path d="M118.055 61.6358H206.598V98.9997H186.532V78.2632H118.055V61.6358ZM206.598 -0.000366211V58.1956H187.214V49.3086H175.038L176.207 32.49H187.214V23.8896H176.207L175.038 7.07106H187.214V-0.000366211H206.598Z" fill="#3D51FF"/>
<path d="M323 50.5508V65.3626H222.087V50.5508H262.706V45.4861H228.224V-0.000366211H316.864V12.7091H247.705V17.1048H315.208V28.4765H247.705V32.8722H318.033V45.5817H282.284V50.6464H323V50.5508ZM227.445 69.7583H317.156V98.9996H297.188V84.5701H227.445V69.7583Z" fill="#3D51FF"/>
<path fill-rule="evenodd" clip-rule="evenodd" d="M109.191 28.0944C109.191 44.6262 121.951 56.1889 141.043 56.1889C160.135 56.1889 172.992 44.6262 172.895 28.0944C172.895 11.6581 160.037 -0.000244141 141.043 -0.000244141C122.049 -0.000244141 109.191 11.7536 109.191 28.0944ZM140.738 38.814L136.642 42.1578C133.161 45.0962 127.836 44.6909 124.867 41.1445C121.897 37.6994 122.307 32.4304 125.891 29.4919L129.987 26.1482C130.089 26.0806 130.18 26.0131 130.271 25.9455C130.453 25.8104 130.635 25.6753 130.908 25.5402C134.39 23.311 139.1 24.0203 141.762 27.1614C142.172 27.6681 142.172 28.4787 141.66 28.884C141.148 29.2893 140.329 29.2893 139.919 28.7827C138.076 26.5535 134.799 26.1482 132.342 27.6681C132.137 27.8707 131.932 27.972 131.727 28.0734L127.632 31.4171C125.174 33.4437 124.867 37.0914 126.915 39.5233C128.963 41.9551 132.649 42.2591 135.106 40.2326L139.202 36.8888C139.714 36.4835 140.533 36.4835 140.943 36.9901C141.353 37.5981 141.25 38.4087 140.738 38.814ZM142.683 15.5089C146.165 12.5705 151.489 13.0771 154.459 16.5222C156.711 19.1567 157.019 22.7031 155.585 25.439L154.151 31.2146C154.151 31.4172 153.947 31.5185 153.742 31.4172L151.489 29.8973L147.189 33.4438L146.267 34.0517C142.786 36.2809 138.075 35.5716 135.413 32.4305C134.901 31.9239 135.004 31.2146 135.516 30.7079C136.028 30.2013 136.847 30.3026 137.256 30.8093C139.099 32.9371 142.376 33.4438 144.834 31.9239C144.936 31.8732 145.038 31.7972 145.141 31.7212C145.243 31.6452 145.345 31.5692 145.448 31.5185L151.796 26.1482C154.254 24.1217 154.561 20.4739 152.513 18.0421C150.465 15.6103 146.779 15.3063 144.322 17.3328L137.973 22.7031C137.461 23.2098 136.744 23.1084 136.232 22.6018C135.72 22.0952 135.823 21.2846 136.335 20.8793L142.683 15.5089Z" fill="#3D51FF"/>
</g>
<defs>
<clipPath id="clip0_709_2160">
<rect width="323" height="99" fill="white"/>
</clipPath>
</defs>
</svg>
