<svg width="16" height="16" viewBox="0 0 16 16" fill="none" xmlns="http://www.w3.org/2000/svg">
<path d="M8.00008 3.33337C5.05608 3.33337 2.66675 5.72271 2.66675 8.66671C2.66675 11.6107 5.05608 14 8.00008 14C10.9441 14 13.3334 11.6107 13.3334 8.66671C13.3334 5.72271 10.9441 3.33337 8.00008 3.33337ZM8.53341 11.3334H7.46675V8.13337H8.53341V11.3334ZM8.53341 7.06671H7.46675V6.00004H8.53341V7.06671Z" fill="#FF5F5F"/>
<path d="M14.6666 3.81332L11.5999 1.23999L10.7399 2.25999L13.8066 4.83332L14.6666 3.81332ZM5.25325 2.25999L4.39992 1.23999L1.33325 3.80666L2.19325 4.82666L5.25325 2.25999ZM7.99992 2.66666C4.68659 2.66666 1.99992 5.35332 1.99992 8.66666C1.99992 11.98 4.67992 14.6667 7.99992 14.6667C11.3133 14.6667 13.9999 11.98 13.9999 8.66666C13.9999 5.35332 11.3133 2.66666 7.99992 2.66666ZM7.99992 13.3333C5.41992 13.3333 3.33325 11.2467 3.33325 8.66666C3.33325 6.08666 5.41992 3.99999 7.99992 3.99999C10.5799 3.99999 12.6666 6.08666 12.6666 8.66666C12.6666 11.2467 10.5799 13.3333 7.99992 13.3333Z" fill="#FF5F5F"/>
</svg>
