<svg width="30" height="30" viewBox="0 0 24 24" fill="black" xmlns="http://www.w3.org/2000/svg">
<path d="M14.7778 16.4444C14.7778 16.5918 14.7192 16.7331 14.615 16.8373C14.5108 16.9415 14.3695 17 14.2222 17H6.44442C6.3222 17 6.20553 17.1111 6.10553 17.1833L4.2222 18.6667V9.77778C4.2222 9.63044 4.28073 9.48913 4.38491 9.38494C4.4891 9.28076 4.63041 9.22223 4.77775 9.22223H6.9222V8.11111H4.77775C4.33572 8.11111 3.9118 8.28671 3.59924 8.59927C3.28668 8.91183 3.11108 9.33575 3.11108 9.77778V19.7778C3.11191 19.881 3.14145 19.9819 3.1964 20.0692C3.25135 20.1565 3.32954 20.2268 3.4222 20.2722C3.51146 20.3128 3.60988 20.3291 3.70746 20.3193C3.80504 20.3096 3.89829 20.2741 3.97775 20.2167L6.83886 18.1111H14.3055C14.5161 18.1173 14.7257 18.0803 14.9213 18.0022C15.117 17.9241 15.2945 17.8067 15.443 17.6572C15.5914 17.5078 15.7076 17.3294 15.7843 17.1332C15.861 16.937 15.8966 16.7272 15.8889 16.5167V15.8889H14.7778V16.4444Z" />
<path d="M19.2222 4.22223H9.77775C9.33572 4.22223 8.9118 4.39782 8.59924 4.71038C8.28668 5.02294 8.11108 5.44687 8.11108 5.8889V12.5556C8.11108 12.9976 8.28668 13.4215 8.59924 13.7341C8.9118 14.0466 9.33572 14.2222 9.77775 14.2222H17.3055L19.9611 16.2833C20.04 16.3417 20.133 16.3781 20.2306 16.3888C20.3282 16.3996 20.4269 16.3843 20.5166 16.3444C20.6112 16.2994 20.6911 16.2286 20.7471 16.1401C20.8031 16.0517 20.833 15.9492 20.8333 15.8445V5.8889C20.8335 5.45633 20.6656 5.04061 20.365 4.7296C20.0643 4.41859 19.6545 4.23665 19.2222 4.22223ZM19.7777 14.7445L17.8333 13.2278C17.7363 13.1525 17.6172 13.1115 17.4944 13.1111H9.77775C9.63041 13.1111 9.4891 13.0526 9.38491 12.9484C9.28073 12.8442 9.22219 12.7029 9.22219 12.5556V5.8889C9.22219 5.74155 9.28073 5.60025 9.38491 5.49606C9.4891 5.39187 9.63041 5.33334 9.77775 5.33334H19.2222C19.3707 5.34682 19.5091 5.41413 19.6115 5.52259C19.7138 5.63106 19.7729 5.77319 19.7777 5.92223V14.7445Z" />
<path d="M9.08325 5.33334H19.9166V15.3333L18.2499 13.6667H9.08325V5.33334Z" />
</svg>
