<svg width="29" height="30" viewBox="0 0 29 30" fill="none" xmlns="http://www.w3.org/2000/svg">
<g clip-path="url(#clip0_907_3773)">
<path d="M8.58942 21.187C6.79808 19.3956 6.79808 16.4965 8.58942 14.7051L14.7766 8.51796C16.0789 7.2157 18.1884 7.2157 19.4906 8.51796C20.7929 9.82021 20.7929 11.9297 19.4906 13.232L14.482 18.2407C13.6688 19.0538 12.3489 19.0538 11.5357 18.2407C10.7225 17.4275 10.7225 16.1076 11.5357 15.2944L15.9551 10.875L17.1336 12.0535L12.6612 16.5259C12.3371 16.85 12.9263 17.4393 13.2504 17.1152L18.3121 12.0535C18.9603 11.4053 18.9603 10.3446 18.3121 9.69647C17.664 9.04829 16.6033 9.04829 15.9551 9.69647L9.76793 15.8837C8.63066 17.0209 8.63066 18.8712 9.76793 20.0084C10.9052 21.1457 12.7555 21.1457 13.8927 20.0084L19.4906 14.4105L20.6692 15.589L15.0712 21.187C13.2799 22.9783 10.3808 22.9783 8.58942 21.187Z" fill="#3D51FF"/>
</g>
<defs>
<clipPath id="clip0_907_3773">
<rect width="20" height="20" fill="white" transform="translate(0.045166 14.9998) rotate(-45)"/>
</clipPath>
</defs>
</svg>
