<svg width="76" height="24" viewBox="0 0 76 24" fill="none" xmlns="http://www.w3.org/2000/svg">
<g clip-path="url(#clip0_709_1859)">
<path d="M14.3245 14.1313H0V0.277992H4.538V3.26641H9.78649V0.277992H14.3245V4.86486H17.5103V0H22.1628V17.5598H17.5103V9.28958H14.3245V14.1313ZM22.4837 19.5058V23.722H1.14596V15.5212H5.86731V19.4826H22.4837V19.5058ZM9.78649 10.2162V7.11197H4.538V10.2162H9.78649Z" fill="white"/>
<path d="M27.7781 14.9421H48.6116V24H43.8903V18.973H27.7781V14.9421ZM48.6116 0V14.1081H44.0507V11.9537H41.1858L41.4608 7.87645H44.0507V5.79151H41.4608L41.1858 1.71429H44.0507V0H48.6116Z" fill="white"/>
<path d="M75.9999 12.2548V15.8456H52.2556V12.2548H61.8129V11.027H53.6995V0H74.556V3.08108H58.2834V4.14672H74.1664V6.90348H58.2834V7.96911H74.831V11.0502H66.4197V12.278H75.9999V12.2548ZM53.5162 16.9112H74.6247V24H69.9263V20.5019H53.5162V16.9112Z" fill="white"/>
<path fill-rule="evenodd" clip-rule="evenodd" d="M25.6924 6.81081C25.6924 10.8185 28.6948 13.6216 33.187 13.6216C37.6791 13.6216 40.7044 10.8185 40.6815 6.81081C40.6815 2.82625 37.6562 0 33.187 0C28.7177 0 25.6924 2.84942 25.6924 6.81081ZM33.1157 9.40955L32.152 10.2202C31.3328 10.9325 30.08 10.8343 29.3813 9.97452C28.6826 9.13934 28.779 7.86201 29.6222 7.14966L30.586 6.33905C30.61 6.32267 30.6315 6.30629 30.6529 6.28992C30.6957 6.25717 30.7385 6.22441 30.8028 6.19166C31.622 5.65125 32.7302 5.8232 33.3566 6.58469C33.453 6.70751 33.453 6.90402 33.3326 7.00227C33.2121 7.10053 33.0193 7.10053 32.923 6.97771C32.4893 6.4373 31.7183 6.33905 31.1401 6.70751C31.0919 6.75663 31.0437 6.7812 30.9955 6.80576L30.0318 7.61637C29.4536 8.10765 29.3813 8.99196 29.8632 9.5815C30.345 10.171 31.2124 10.2447 31.7906 9.75344L32.7543 8.94283C32.8748 8.84458 33.0675 8.84458 33.1639 8.9674C33.2603 9.11478 33.2362 9.31129 33.1157 9.40955ZM33.5735 3.75982C34.3926 3.04746 35.6455 3.17028 36.3442 4.00546C36.8742 4.64413 36.9465 5.50387 36.6092 6.1671L36.2719 7.56725C36.2719 7.61637 36.2237 7.64094 36.1755 7.61637L35.6455 7.24791L34.6336 8.10765L34.4167 8.25504C33.5976 8.79545 32.4893 8.6235 31.8629 7.86201C31.7424 7.73919 31.7665 7.56725 31.887 7.44443C32.0074 7.32161 32.2002 7.34617 32.2966 7.46899C32.7302 7.98483 33.5012 8.10765 34.0794 7.73919C34.1035 7.72691 34.1276 7.70849 34.1517 7.69007C34.1758 7.67164 34.1999 7.65322 34.224 7.64094L35.7178 6.33904C36.296 5.84776 36.3683 4.96346 35.8864 4.37392C35.4046 3.78439 34.5372 3.71069 33.959 4.20197L32.4652 5.50387C32.3447 5.62669 32.1761 5.60212 32.0556 5.4793C31.9352 5.35648 31.9593 5.15997 32.0797 5.06172L33.5735 3.75982Z" fill="white"/>
</g>
<defs>
<clipPath id="clip0_709_1859">
<rect width="76" height="24" fill="white"/>
</clipPath>
</defs>
</svg>
