<svg width="32" height="32" viewBox="0 0 32 32" fill="none" xmlns="http://www.w3.org/2000/svg">
<path d="M25.3333 28H13.3333C12.6261 28 11.9478 27.719 11.4477 27.219C10.9476 26.7189 10.6667 26.0406 10.6667 25.3333V20H13.3333V25.3333H25.3333V6.66667H13.3333V12H10.6667V6.66667C10.6667 5.95942 10.9476 5.28115 11.4477 4.78105C11.9478 4.28095 12.6261 4 13.3333 4H25.3333C26.0406 4 26.7189 4.28095 27.219 4.78105C27.719 5.28115 28 5.95942 28 6.66667V25.3333C28 26.0406 27.719 26.7189 27.219 27.219C26.7189 27.719 26.0406 28 25.3333 28ZM16 21.3333V17.3333H4V14.6667H16V10.6667L22.6667 16L16 21.3333Z" fill="white"/>
</svg>
