<svg width="103" height="32" viewBox="0 0 103 32" fill="none" xmlns="http://www.w3.org/2000/svg">
<g clip-path="url(#clip0_938_412)">
<path d="M44.7191 18.1868C38.6848 18.1868 34.6012 14.451 34.6012 9.11164C34.6012 3.80868 38.6848 0.0364685 44.7191 0.0364685C50.7533 0.0364685 54.8369 3.80868 54.8369 9.11164C54.8369 14.451 50.7533 18.1868 44.7191 18.1868Z" fill="#3D51FF"/>
<path d="M19.306 18.8428H0V0.364465H6.10717V4.37358H13.1806V0.364465H19.2877V6.46925H23.5901V0H29.8431V23.3986H23.5901V12.3736H19.2877V18.8428H19.306ZM30.3171 26.0046V31.6355H1.54958V20.7016H7.93021V26.0046H30.3171ZM13.1988 13.631V9.47608H6.10717V13.631H13.1988Z" fill="#3D51FF"/>
<path d="M37.427 19.918H65.52V32H59.1394V25.2939H37.427V19.918ZM65.5018 0V18.8064H59.3581V15.9271H55.5115L55.8761 10.4784H59.3581V7.70843H55.8761L55.5115 2.25968H59.3581V0H65.5018Z" fill="#3D51FF"/>
<path d="M102.4 16.328V21.1025H70.3875V16.328H83.2763V14.7062H72.3381V0H100.468V4.11845H78.5364V5.52164H99.9571V9.18451H78.5364V10.5877H100.85V14.7062H89.5111V16.328H102.4ZM72.1011 22.5604H100.559V32H94.2146V27.3349H72.1011V22.5604Z" fill="#3D51FF"/>
<path d="M44.3181 11.5718L43.0419 12.3189C41.9299 12.9567 40.4897 12.574 39.8516 11.4624C39.2136 10.3508 39.5964 8.91117 40.7084 8.27335L41.9846 7.5262C42.0757 7.47153 42.1486 7.43509 42.258 7.39864C43.3336 6.96128 44.5915 7.38042 45.1749 8.38269C45.266 8.5467 45.2113 8.76538 45.0473 8.87472C44.8832 8.96584 44.6644 8.91117 44.5551 8.74716C44.154 8.05468 43.2789 7.74488 42.5315 8.05468C42.4586 8.09112 42.3856 8.10935 42.3309 8.14579L41.0548 8.89295C40.2709 9.34853 40.0157 10.3326 40.4532 11.1162C40.909 11.8998 41.8934 12.1549 42.6773 11.7175L43.9535 10.9704C44.1175 10.8793 44.3363 10.9339 44.4457 11.098C44.5368 11.262 44.4821 11.4806 44.3181 11.5718Z" fill="white"/>
<path d="M49.2038 6.06834C48.5657 4.95672 47.1255 4.57404 46.0135 5.21185L43.9899 6.37814C43.8258 6.46925 43.7529 6.68793 43.8623 6.85194C43.9717 7.01595 44.1722 7.08884 44.3545 6.9795L46.3781 5.81322C47.162 5.35763 48.1464 5.63098 48.6022 6.41458C49.0579 7.19818 48.7845 8.18224 48.0006 8.63782L45.977 9.8041C45.9223 9.84055 45.8676 9.85877 45.7765 9.89522C45.029 10.205 44.154 9.91344 43.7529 9.20274C43.6617 9.03873 43.443 8.96584 43.2607 9.07518C43.0966 9.16629 43.0237 9.38497 43.1331 9.5672C43.7164 10.5695 44.9561 11.0068 46.0499 10.5513C46.1593 10.5148 46.2505 10.4601 46.3234 10.4237L47.6907 9.6401L48.2376 10.1868C48.274 10.2232 48.347 10.205 48.3652 10.1686L49.0579 8.63782C49.5866 7.89066 49.6778 6.88839 49.2038 6.06834Z" fill="white"/>
</g>
<defs>
<clipPath id="clip0_938_412">
<rect width="102.4" height="32" fill="white"/>
</clipPath>
</defs>
</svg>
