<svg width="30" height="30" viewBox="0 0 24 24" fill="black" xmlns="http://www.w3.org/2000/svg">
<path d="M17.8333 4.49999H14.35C14 3.53333 13.0833 2.83333 12 2.83333C10.9167 2.83333 10 3.53333 9.65 4.49999H6.16667C5.25 4.49999 4.5 5.24999 4.5 6.16666V17.8333C4.5 18.75 5.25 19.5 6.16667 19.5H17.8333C18.75 19.5 19.5 18.75 19.5 17.8333V6.16666C19.5 5.24999 18.75 4.49999 17.8333 4.49999ZM12 4.49999C12.4583 4.49999 12.8333 4.87499 12.8333 5.33333C12.8333 5.79166 12.4583 6.16666 12 6.16666C11.5417 6.16666 11.1667 5.79166 11.1667 5.33333C11.1667 4.87499 11.5417 4.49999 12 4.49999ZM13.6667 16.1667H7.83333V14.5H13.6667V16.1667ZM16.1667 12.8333H7.83333V11.1667H16.1667V12.8333ZM16.1667 9.49999H7.83333V7.83333H16.1667V9.49999Z"/>
</svg>
