<svg width="346" height="204" viewBox="0 0 346 204" fill="none" xmlns="http://www.w3.org/2000/svg">
<path fill-rule="evenodd" clip-rule="evenodd" d="M174.862 30C143.005 30 120.724 54.5889 120.724 91.3784C120.724 128.168 143.005 152.944 174.862 152.757C206.535 152.757 229 127.98 229 91.3784C229 54.7766 206.35 30 174.862 30ZM154.205 90.7907L147.762 82.898C142.099 76.1893 142.88 65.929 149.714 60.2068C156.353 54.4847 166.506 55.2739 172.169 62.18L178.612 70.0726C178.742 70.2699 178.873 70.4452 179.003 70.6206L179.003 70.6207C179.263 70.9715 179.523 71.3222 179.784 71.8484C184.079 78.5571 182.713 87.6336 176.66 92.7638C175.683 93.5531 174.121 93.5531 173.34 92.5665C172.559 91.5799 172.559 90.0014 173.536 89.2122C177.831 85.6605 178.612 79.3464 175.683 74.6108C175.293 74.2162 175.098 73.8216 174.902 73.4269L168.459 65.5343C164.554 60.7988 157.525 60.2068 152.839 64.1531C148.152 68.0994 147.567 75.2028 151.472 79.9383L157.915 87.8309C158.696 88.8175 158.696 90.396 157.72 91.1853C156.548 91.9745 154.986 91.7773 154.205 90.7907ZM199.114 94.5392C204.776 101.248 203.8 111.508 197.161 117.23C192.085 121.571 185.251 122.163 179.979 119.401L168.849 116.639C168.459 116.639 168.264 116.244 168.459 115.849L171.388 111.508L164.554 103.221L163.382 101.445C159.087 94.7365 160.453 85.6601 166.506 80.5299C167.483 79.5433 168.849 79.7406 169.826 80.7272C170.802 81.7138 170.607 83.2923 169.63 84.0816C165.53 87.6332 164.554 93.9473 167.483 98.6829C167.58 98.8802 167.727 99.0775 167.873 99.2748C168.019 99.4721 168.166 99.6694 168.264 99.8667L178.612 112.1C182.517 116.836 189.546 117.428 194.233 113.481C198.919 109.535 199.504 102.432 195.599 97.6963L185.251 85.4628C184.274 84.4762 184.47 83.095 185.446 82.1084C186.422 81.1218 187.984 81.3191 188.765 82.3057L199.114 94.5392Z" fill="#3D51FF"/>
<path d="M7.35 135.5V114.8L54.75 47H83.4V113.3H95.7V135.5H83.4V155H57.75V135.5H7.35ZM59.55 75.2L34.35 113.3H59.55V75.2Z" fill="black"/>
<path d="M251.35 135.5V114.8L298.75 47H327.4V113.3H339.7V135.5H327.4V155H301.75V135.5H251.35ZM303.55 75.2L278.35 113.3H303.55V75.2Z" fill="black"/>
</svg>
