<svg width="30" height="30" viewBox="0 0 24 24" fill="black" xmlns="http://www.w3.org/2000/svg">
<path d="M19.4999 5.33334H11.1666L10.3333 2.83334H4.49992C3.58325 2.83334 2.83325 3.58334 2.83325 4.50001V17C2.83325 17.9167 3.58325 18.6667 4.49992 18.6667H11.1666L11.9999 21.1667H19.4999C20.4166 21.1667 21.1666 20.4167 21.1666 19.5V7.00001C21.1666 6.08334 20.4166 5.33334 19.4999 5.33334ZM7.83325 15.3333C5.53325 15.3333 3.66659 13.4667 3.66659 11.1667C3.66659 8.86668 5.53325 7.00001 7.83325 7.00001C8.95825 7.00001 9.89992 7.41668 10.6249 8.08334L9.52492 9.14168C9.20825 8.84168 8.65825 8.49168 7.83325 8.49168C6.38325 8.49168 5.20825 9.69168 5.20825 11.1667C5.20825 12.6417 6.38325 13.8417 7.83325 13.8417C9.50825 13.8417 10.1999 12.6417 10.2666 11.8333H7.83325V10.4083H11.7333C11.7916 10.6667 11.8333 10.9167 11.8333 11.2583C11.8333 13.6417 10.2416 15.3333 7.83325 15.3333ZM12.9749 10.8167H16.0583C15.6999 11.8583 15.1333 12.8417 14.3499 13.7083C14.0916 13.4167 13.8499 13.1083 13.6333 12.7917L12.9749 10.8167ZM19.9166 19.0833C19.9166 19.5417 19.5416 19.9167 19.0833 19.9167H13.6666L15.3333 17.8333L14.4666 15.25L17.0499 17.8333L17.8166 17.0667L15.0666 14.3583L15.0833 14.3417C16.0249 13.3 16.6916 12.1 17.0833 10.825H18.6666V9.74168H14.8916V8.66668H13.8166V9.74168H12.6166L11.5499 6.58334H19.0833C19.5416 6.58334 19.9166 6.95834 19.9166 7.41668V19.0833Z" />
</svg>
