<svg width="30" height="30" viewBox="0 0 24 24" fill="black" xmlns="http://www.w3.org/2000/svg">
<path fill-rule="evenodd" clip-rule="evenodd" d="M20.872 10.166H12.178C11.3015 10.166 10.591 10.8765 10.591 11.753V20.447C10.591 21.3234 11.3015 22.034 12.178 22.034H20.872C21.7485 22.034 22.459 21.3234 22.459 20.447V11.753C22.459 10.8765 21.7485 10.166 20.872 10.166ZM12.178 9.19995C10.768 9.19995 9.625 10.343 9.625 11.753V20.447C9.625 21.8569 10.768 23 12.178 23H20.872C22.282 23 23.425 21.8569 23.425 20.447V11.753C23.425 10.343 22.282 9.19995 20.872 9.19995H12.178Z"/>
<path d="M19.5257 19.2656C19.5556 19.3493 19.5705 19.4371 19.5705 19.5292C19.5705 19.6129 19.5331 19.7008 19.4584 19.7928C19.3911 19.8849 19.2753 19.9309 19.1108 19.9309C18.9538 19.9309 18.838 19.8347 18.7632 19.6422L18.169 18.0479H15.0407L14.4577 19.6422C14.3829 19.8347 14.2633 19.9309 14.0989 19.9309C13.9419 19.9309 13.8261 19.8849 13.7513 19.7928C13.684 19.7008 13.6504 19.6129 13.6504 19.5292C13.6504 19.4371 13.6653 19.3493 13.6952 19.2656L16.0274 13.0767C16.1321 12.7921 16.3115 12.6498 16.5656 12.6498H16.6553C16.902 12.6498 17.0814 12.7921 17.1935 13.0767L19.5257 19.2656ZM17.855 17.1942L16.6104 13.8424L15.3659 17.1942H17.855Z"  stroke-width="0.5"/>
<path d="M1 2.59C1 1.15958 2.15958 0 3.59 0H12.41C13.8404 0 15 1.15958 15 2.59V11.41C15 12.8404 13.8404 14 12.41 14H3.59C2.15958 14 1 12.8404 1 11.41V2.59Z" />
<path fill-rule="evenodd" clip-rule="evenodd" d="M12.41 0.98H3.59C2.70082 0.98 1.98 1.70082 1.98 2.59V11.41C1.98 12.2992 2.70082 13.02 3.59 13.02H12.41C13.2992 13.02 14.02 12.2992 14.02 11.41V2.59C14.02 1.70082 13.2992 0.98 12.41 0.98ZM3.59 0C2.15958 0 1 1.15958 1 2.59V11.41C1 12.8404 2.15958 14 3.59 14H12.41C13.8404 14 15 12.8404 15 11.41V2.59C15 1.15958 13.8404 0 12.41 0H3.59Z" />
<path d="M5.44787 4.60383C5.3207 4.60383 5.2267 4.55578 5.16588 4.45967C5.10506 4.36356 5.07464 4.24943 5.07464 4.11728C5.07464 3.97912 5.10506 3.86199 5.16588 3.76588C5.2267 3.66977 5.3207 3.62171 5.44787 3.62171H7.92773C8.19313 3.62171 8.37559 3.67577 8.47512 3.7839C8.58017 3.89202 8.6327 4.08724 8.6327 4.36957V5.35169C8.6327 5.73012 8.59953 6.0605 8.53318 6.34282C8.46682 6.61914 8.33136 6.88945 8.12678 7.15375C7.9222 7.41805 7.62915 7.70037 7.24763 8.00072C6.87164 8.29505 6.37125 8.65246 5.74645 9.07294C5.63033 9.15103 5.50869 9.16605 5.38152 9.11799C5.25987 9.06393 5.16588 8.98284 5.09953 8.87471C5.03318 8.76659 5 8.64045 5 8.49628C5 8.35212 5.06082 8.23799 5.18246 8.15389C5.55845 7.90761 5.87915 7.69136 6.14455 7.50515C6.40995 7.31293 6.63112 7.14173 6.80806 6.99156C6.98499 6.84139 7.12322 6.70323 7.22275 6.57709C7.3278 6.45094 7.40521 6.3248 7.45498 6.19866C7.51027 6.0665 7.54344 5.93135 7.5545 5.79319C7.57109 5.65503 7.57938 5.49585 7.57938 5.31565V4.81107C7.57938 4.67291 7.5158 4.60383 7.38863 4.60383H5.44787ZM11.6185 5.65804C11.7512 5.65804 11.8479 5.70609 11.9088 5.8022C11.9696 5.89831 12 6.01545 12 6.1536C12 6.29176 11.9696 6.4119 11.9088 6.51402C11.8479 6.61013 11.7512 6.65818 11.6185 6.65818H10.8389V10.3884C10.8389 10.5566 10.7836 10.6798 10.673 10.7579C10.5679 10.836 10.4463 10.875 10.3081 10.875C10.1698 10.875 10.0454 10.836 9.93483 10.7579C9.82978 10.6798 9.77725 10.5566 9.77725 10.3884V3.48656C9.77725 3.31836 9.82978 3.19522 9.93483 3.11713C10.0454 3.03904 10.1698 3 10.3081 3C10.4463 3 10.5679 3.03904 10.673 3.11713C10.7836 3.19522 10.8389 3.31836 10.8389 3.48656V5.65804H11.6185Z" fill="white"/>
</svg>
