<svg width="24" height="24" viewBox="0 0 24 24" fill="black" xmlns="http://www.w3.org/2000/svg">
<path d="M15.3333 17.3334C15.3333 17.5102 15.263 17.6798 15.138 17.8048C15.013 17.9298 14.8434 18 14.6666 18H5.33325C5.18659 18 5.04659 18.1334 4.92659 18.22L2.66659 20V9.33337C2.66659 9.15656 2.73682 8.98699 2.86185 8.86197C2.98687 8.73695 3.15644 8.66671 3.33325 8.66671H5.90659V7.33337H3.33325C2.80282 7.33337 2.29411 7.54409 1.91904 7.91916C1.54397 8.29423 1.33325 8.80294 1.33325 9.33337V21.3334C1.33424 21.4572 1.3697 21.5783 1.43564 21.6831C1.50158 21.7879 1.5954 21.8722 1.70659 21.9267C1.8137 21.9754 1.93181 21.9949 2.0489 21.9832C2.16599 21.9715 2.2779 21.929 2.37325 21.86L5.80659 19.3334H14.7666C15.0193 19.3408 15.2708 19.2964 15.5056 19.2027C15.7403 19.109 15.9534 18.9681 16.1315 18.7887C16.3096 18.6094 16.449 18.3953 16.5411 18.1599C16.6331 17.9245 16.6758 17.6727 16.6666 17.42V16.6667H15.3333V17.3334Z" />
<path d="M20.6666 2.66663H9.33325C8.80282 2.66663 8.29411 2.87734 7.91904 3.25241C7.54397 3.62749 7.33325 4.13619 7.33325 4.66663V12.6666C7.33325 13.1971 7.54397 13.7058 7.91904 14.0808C8.29411 14.4559 8.80282 14.6666 9.33325 14.6666H18.3666L21.5533 17.14C21.648 17.21 21.7596 17.2537 21.8767 17.2666C21.9938 17.2794 22.1122 17.2611 22.2199 17.2133C22.3334 17.1593 22.4292 17.0743 22.4965 16.9681C22.5637 16.8619 22.5996 16.7389 22.5999 16.6133V4.66663C22.6002 4.14754 22.3987 3.64868 22.0379 3.27547C21.6771 2.90226 21.1854 2.68393 20.6666 2.66663ZM21.3333 15.2933L18.9999 13.4733C18.8836 13.383 18.7405 13.3338 18.5933 13.3333H9.33325C9.15644 13.3333 8.98687 13.2631 8.86185 13.138C8.73682 13.013 8.66659 12.8434 8.66659 12.6666V4.66663C8.66659 4.48981 8.73682 4.32025 8.86185 4.19522C8.98687 4.0702 9.15644 3.99996 9.33325 3.99996H20.6666C20.8448 4.01613 21.0109 4.0969 21.1337 4.22706C21.2565 4.35722 21.3275 4.52778 21.3333 4.70663V15.2933Z" />
<path d="M8.5 4H21.5V16L19.5 14H8.5V4Z"/>
</svg>
